<svg xmlns="http://www.w3.org/2000/svg" width="900" height="680" viewBox="0 0 900 680"><defs><style>.b{fill:#fff}.t{font:700 26px Arial;fill:#111827}.a{fill:#f8fafc;stroke:#111827;stroke-width:2}.d{fill:#fff;stroke:#111827;stroke-width:2}.x{font:600 15px Arial;fill:#111827}.s{font:400 13px Arial;fill:#374151}.l{stroke:#111827;stroke-width:2;fill:none;marker-end:url(#m)}.dot{fill:#111827}</style><marker id="m" viewBox="0 0 10 10" refX="9" refY="5" markerWidth="8" markerHeight="8" orient="auto"><path d="M0 0L10 5L0 10z" fill="#111827"/></marker></defs><rect class="b" width="900" height="680"/><text class="t" x="50" y="55">Atividade - Abrir rota no Maps</text><circle class="dot" cx="450" cy="105" r="13"/><rect class="a" x="315" y="155" width="270" height="60" rx="8"/><text class="x" x="360" y="190">Clicar Abrir no Maps</text><polygon class="d" points="450,260 565,330 450,400 335,330"/><text class="x" x="385" y="325">Existe ponto</text><text class="x" x="385" y="345">da coleira?</text><rect class="a" x="620" y="300" width="220" height="60" rx="8"/><text class="x" x="650" y="335">Exibir alerta</text><rect class="a" x="315" y="460" width="270" height="60" rx="8"/><text class="x" x="345" y="495">Montar URL com destino</text><rect class="a" x="315" y="575" width="270" height="60" rx="8"/><text class="x" x="350" y="610">Abrir Google Maps</text><path class="l" d="M450 118V155"/><path class="l" d="M450 215V260"/><path class="l" d="M565 330H620"/><text class="s" x="580" y="320">não</text><path class="l" d="M450 400V460"/><text class="s" x="465" y="430">sim</text><path class="l" d="M450 520V575"/></svg>
