<svg xmlns="http://www.w3.org/2000/svg" width="1250" height="760" viewBox="0 0 1250 760">
  <style>.bg{fill:#fff}.title{font:700 28px Arial;fill:#111}.cls{fill:#fff;stroke:#111;stroke-width:2}.head{fill:#e7e6e6;stroke:#111;stroke-width:2}.h{font:700 17px Arial;fill:#111}.m{font:14px Arial;fill:#111}.rel{stroke:#111;stroke-width:2;fill:none}</style>
  <rect class="bg" width="1250" height="760"/>
  <text class="title" x="50" y="55">Diagrama de classes - Servicos do aplicativo</text>
  <g transform="translate(70,120)"><rect class="cls" width="310" height="170"/><rect class="head" width="310" height="34"/><text class="h" x="12" y="23">supabaseClient</text><text class="m" x="12" y="62">auth.signInWithPassword()</text><text class="m" x="12" y="88">auth.signUp()</text><text class="m" x="12" y="114">from(table).select()</text><text class="m" x="12" y="140">functions.invoke()</text></g>
  <g transform="translate(470,120)"><rect class="cls" width="310" height="170"/><rect class="head" width="310" height="34"/><text class="h" x="12" y="23">deviceService</text><text class="m" x="12" y="62">fetchDeviceProfile()</text><text class="m" x="12" y="88">saveDeviceProfile()</text><text class="m" x="12" y="114">registerCollar()</text><text class="m" x="12" y="140">getActiveCollar()</text></g>
  <g transform="translate(870,120)"><rect class="cls" width="310" height="170"/><rect class="head" width="310" height="34"/><text class="h" x="12" y="23">gpsService</text><text class="m" x="12" y="62">fetchLatestGps()</text><text class="m" x="12" y="88">requestGpsUpdate()</text><text class="m" x="12" y="114">getPendingRequest()</text></g>
  <g transform="translate(70,420)"><rect class="cls" width="310" height="170"/><rect class="head" width="310" height="34"/><text class="h" x="12" y="23">bleService</text><text class="m" x="12" y="62">scan()</text><text class="m" x="12" y="88">connect()</text><text class="m" x="12" y="114">monitorCharacteristic()</text><text class="m" x="12" y="140">sendBleEvent()</text></g>
  <g transform="translate(470,420)"><rect class="cls" width="310" height="170"/><rect class="head" width="310" height="34"/><text class="h" x="12" y="23">profileService</text><text class="m" x="12" y="62">fetchProfile()</text><text class="m" x="12" y="88">saveProfile()</text><text class="m" x="12" y="114">deleteAccount()</text></g>
  <g transform="translate(870,420)"><rect class="cls" width="310" height="170"/><rect class="head" width="310" height="34"/><text class="h" x="12" y="23">petService</text><text class="m" x="12" y="62">fetchPet()</text><text class="m" x="12" y="88">savePet()</text><text class="m" x="12" y="114">formatWeight()</text><text class="m" x="12" y="140">formatSize()</text></g>
  <path class="rel" d="M380 205 H470"/><path class="rel" d="M780 205 H870"/><path class="rel" d="M225 290 V420"/><path class="rel" d="M625 290 V420"/><path class="rel" d="M1025 290 V420"/>
</svg>

